<svg class="whats-new__backgroundImage___1fiti" id="deliverables" viewBox="0 0 1920 500"><defs><clipPath id="clippath"><rect width="1920" height="500" fill="none" stroke-width="0"></rect></clipPath><clipPath id="clippath-1"><rect width="1920" height="500" fill="none" stroke-width="0"></rect></clipPath><clipPath id="clippath-2"><rect width="1920" height="500" fill="none" stroke-width="0"></rect></clipPath><radialGradient id="radial-gradient" cx="267.4" cy="25.36" fx="267.4" fy="25.36" r="462.56" gradientUnits="userSpaceOnUse"><stop offset="0" stop-color="#eb1000"></stop><stop offset=".1" stop-color="rgba(232, 17, 5, .98)" stop-opacity=".98"></stop><stop offset=".23" stop-color="rgba(223, 22, 22, .91)" stop-opacity=".91"></stop><stop offset=".38" stop-color="rgba(210, 29, 50, .8)" stop-opacity=".8"></stop><stop offset=".54" stop-color="rgba(191, 40, 89, .64)" stop-opacity=".64"></stop><stop offset=".7" stop-color="rgba(166, 54, 139, .44)" stop-opacity=".44"></stop><stop offset=".87" stop-color="rgba(137, 71, 199, .2)" stop-opacity=".2"></stop><stop offset="1" stop-color="#7155fa" stop-opacity="0"></stop></radialGradient><radialGradient id="radial-gradient-2" cx="750.03" cy="-194.84" fx="750.03" fy="-194.84" r="523.35" gradientUnits="userSpaceOnUse"><stop offset="0" stop-color="#7155fa"></stop><stop offset=".3" stop-color="rgba(113, 85, 250, .72)" stop-opacity=".72"></stop><stop offset=".98" stop-color="rgba(113, 85, 250, .02)" stop-opacity=".02"></stop><stop offset="1" stop-color="#7155fa" stop-opacity="0"></stop></radialGradient><linearGradient id="linear-gradient" x1="960" y1="-146.93" x2="960" y2="438.55" gradientUnits="userSpaceOnUse"><stop offset="0" stop-color="#004da3"></stop><stop offset=".14" stop-color="rgba(3, 77, 165, .97)" stop-opacity=".97"></stop><stop offset=".29" stop-color="rgba(13, 77, 173, .88)" stop-opacity=".88"></stop><stop offset=".46" stop-color="rgba(29, 79, 185, .74)" stop-opacity=".74"></stop><stop offset=".64" stop-color="rgba(52, 80, 203, .54)" stop-opacity=".54"></stop><stop offset=".82" stop-color="rgba(80, 82, 225, .28)" stop-opacity=".28"></stop><stop offset=".99" stop-color="#7155fa" stop-opacity="0"></stop></linearGradient><radialGradient id="radial-gradient-3" cx="1643.63" cy="92.57" fx="1578.55" fy="126.36" r="407.43" gradientUnits="userSpaceOnUse"><stop offset="0" stop-color="#f65843" stop-opacity=".5"></stop><stop offset=".42" stop-color="rgba(219, 48, 36, .26)" stop-opacity=".26"></stop><stop offset=".81" stop-color="rgba(198, 16, 12, .07)" stop-opacity=".07"></stop><stop offset="1" stop-color="#be0403" stop-opacity="0"></stop></radialGradient><radialGradient id="radial-gradient-4" cx="-1481.76" cy="500.09" fx="-1481.76" fy="500.09" r="1" gradientTransform="translate(-766073.32 -166277.92) rotate(174.95) scale(503.95 -466.04) skewX(-.8)" gradientUnits="userSpaceOnUse"><stop offset="0" stop-color="#f65843"></stop><stop offset=".09" stop-color="rgba(236, 73, 55, .82)" stop-opacity=".82"></stop><stop offset=".23" stop-color="rgba(224, 55, 41, .61)" stop-opacity=".61"></stop><stop offset=".36" stop-color="rgba(213, 39, 29, .42)" stop-opacity=".42"></stop><stop offset=".49" stop-color="rgba(205, 26, 20, .27)" stop-opacity=".27"></stop><stop offset=".62" stop-color="rgba(198, 16, 12, .15)" stop-opacity=".15"></stop><stop offset=".75" stop-color="rgba(193, 9, 7, .07)" stop-opacity=".07"></stop><stop offset=".88" stop-color="rgba(190, 5, 4, .02)" stop-opacity=".02"></stop><stop offset="1" stop-color="#be0403" stop-opacity="0"></stop></radialGradient><radialGradient id="radial-gradient-5" cx="-18.55" cy="72.36" fx="-18.55" fy="72.36" r="428.52" gradientUnits="userSpaceOnUse"><stop offset=".23" stop-color="#ea3829" stop-opacity=".8"></stop><stop offset=".48" stop-color="rgba(217, 36, 26, .5)" stop-opacity=".5"></stop><stop offset=".8" stop-color="rgba(197, 13, 9, .14)" stop-opacity=".14"></stop><stop offset=".95" stop-color="#be0403" stop-opacity="0"></stop></radialGradient><radialGradient id="radial-gradient-6" cx="-1482.65" cy="499.77" fx="-1482.65" fy="499.77" r=".88" gradientTransform="translate(-639888.27 -183471.04) rotate(174.54) scale(418.35 -487.31)" gradientUnits="userSpaceOnUse"><stop offset="0" stop-color="#004da3" stop-opacity=".9"></stop><stop offset=".06" stop-color="rgba(0, 77, 163, .77)" stop-opacity=".77"></stop><stop offset=".2" stop-color="rgba(0, 77, 163, .54)" stop-opacity=".54"></stop><stop offset=".34" stop-color="rgba(0, 77, 163, .34)" stop-opacity=".34"></stop><stop offset=".49" stop-color="rgba(0, 77, 163, .19)" stop-opacity=".19"></stop><stop offset=".64" stop-color="rgba(0, 77, 163, .08)" stop-opacity=".08"></stop><stop offset=".81" stop-color="rgba(0, 77, 163, .02)" stop-opacity=".02"></stop><stop offset="1" stop-color="#004da3" stop-opacity="0"></stop></radialGradient><radialGradient id="radial-gradient-7" cx="-1478.7" cy="497.45" fx="-1478.7" fy="497.45" r=".77" gradientTransform="translate(488417.83 -700706.69) rotate(-90) scale(473.89 -981.11)" gradientUnits="userSpaceOnUse"><stop offset="0" stop-color="#ea3829" stop-opacity=".5"></stop><stop offset=".57" stop-color="rgba(234, 56, 41, .21)" stop-opacity=".21"></stop><stop offset="1" stop-color="#ea3829" stop-opacity="0"></stop></radialGradient><radialGradient id="radial-gradient-8" cx="-1484.66" cy="503.42" fx="-1484.66" fy="503.42" r="1.37" gradientTransform="translate(-288114.04 99021.74) rotate(127.09) scale(170.88 -341.47)" gradientUnits="userSpaceOnUse"><stop offset=".17" stop-color="#8d0000"></stop><stop offset=".36" stop-color="rgba(148, 16, 16, .67)" stop-opacity=".67"></stop><stop offset=".55" stop-color="rgba(154, 30, 30, .38)" stop-opacity=".38"></stop><stop offset=".73" stop-color="rgba(159, 41, 41, .17)" stop-opacity=".17"></stop><stop offset=".89" stop-color="rgba(162, 47, 47, .05)" stop-opacity=".05"></stop><stop offset="1" stop-color="#a33232" stop-opacity="0"></stop></radialGradient></defs><g clip-path="url(#clippath)"><g clip-path="url(#clippath-1)"><g><g clip-path="url(#clippath-2)"><path d="M729.27,0H-5.63v398.77c76.52,56.05,170.91,89.15,273.04,89.15,255.46,0,462.56-207.09,462.56-462.56,0-8.51-.24-16.96-.69-25.36Z" fill="url(#radial-gradient)" stroke-width="0"></path><path d="M230.41-132.14c30.98,259.48,251.8,460.65,519.62,460.65s488.64-201.17,519.62-460.65H230.41Z" fill="url(#radial-gradient-2)" stroke-width="0"></path></g><path d="M1610.43,269.43c-77.9,77.44-185.5,125.44-304.28,125.44-226.21,0-411.62-173.99-428.82-394.87H0v290.45c104.67,49.42,203.21,18.17,315.6-93.75,77.9-77.44,185.5-125.44,304.28-125.44,237.51,0,430.04,191.81,430.12,428.31H0v.44h1920V172.92c-102.43-45.43-199.34-13.26-309.57,96.51Z" fill="url(#linear-gradient)" stroke-width="0"></path><path d="M1534.24,63.35c-61.49-37.8-139.29-37.84-200.83-.13l-96.15,58.92c15.15,211.21,191.3,377.86,406.37,377.86,106.66,0,203.75-40.99,276.37-108.07v-91.46l-385.76-237.12Z" fill="url(#radial-gradient-3)" stroke-width="0"></path><path d="M1150.32,0c24.33,274.13,272.93,489.61,576.04,489.61,67.92,0,133.11-10.83,193.65-30.7V0h-769.68Z" fill="url(#radial-gradient-4)" stroke-width="0"></path><path d="M402.94,0H0v499.56h526.05c16.18-48.07,24.95-99.54,24.95-153.06C551,210.26,494.18,87.29,402.94,0Z" fill="url(#radial-gradient-5)" stroke-width="0"></path><path d="M1126.97-67.76H287.28c-2.06,16.92-3.13,34.14-3.13,51.61,0,233.6,189.37,422.97,422.97,422.97s422.97-189.37,422.97-422.97c0-17.47-1.07-34.7-3.13-51.61Z" fill="url(#radial-gradient-6)" stroke-width="0"></path><path d="M1117.45,0H0v358.35c108.2,28.82,232.56,45.23,364.86,45.23,417.89,0,756.66-163.63,756.66-365.48,0-12.86-1.38-25.57-4.07-38.09Z" fill="url(#radial-gradient-7)" stroke-width="0"></path></g></g></g><path d="M1607.53,61.32c-77.49,102.51,33.46,298.05,248.02,438.68h64.45V24.44c-139.37-41.24-261.03-31.17-312.47,36.88Z" fill="url(#radial-gradient-8)" stroke-width="0"></path></svg>
