<svg width="161" height="88" viewBox="0 0 161 88" fill="none" xmlns="http://www.w3.org/2000/svg"><path fill-rule="evenodd" clip-rule="evenodd" d="M41.76 70.247C40.946 71.48 40.326 73 38.667 73c-2.791 0-2.942-4.304-5.735-4.304S30.29 73 27.498 73c-2.792 0-2.943-4.304-5.736-4.304C18.97 68.696 19.12 73 16.33 73c-2.792 0-2.943-4.304-5.736-4.304C7.802 68.696 7.952 73 5.16 73c-.877 0-1.494-.425-2.013-1.008C1.149 68.516 0 64.442 0 60.087 0 47.337 9.85 37 22 37s22 10.336 22 23.087c0 3.646-.805 7.094-2.24 10.16Z" fill="#FB70A9"></path><mask id="mask0_1_218" style="mask-type:alpha" maskUnits="userSpaceOnUse" x="7" y="64" width="29" height="24"><path d="M13.214 67.968v9.562a3.107 3.107 0 0 1-6.214 0V65.986C7.58 64.922 8.242 64 9.437 64c1.944 0 2.623 2.442 3.777 3.968Zm11.738.498v15.122a3.452 3.452 0 0 1-6.904 0V66.473c.65-1.254 1.32-2.473 2.694-2.473 2.174 0 2.767 3.056 4.21 4.466ZM36 68.188v10.978a3.107 3.107 0 0 1-6.214 0V65.673c.54-.926 1.185-1.673 2.26-1.673 2.041 0 2.688 2.692 3.954 4.188Z" fill="#fff"></path></mask><g mask="url(#mask0_1_218)"><path d="M13.214 67.968v9.562a3.107 3.107 0 0 1-6.214 0V65.986C7.58 64.922 8.242 64 9.437 64c1.944 0 2.623 2.442 3.777 3.968Zm11.738.498v15.122a3.452 3.452 0 0 1-6.904 0V66.473c.65-1.254 1.32-2.473 2.694-2.473 2.174 0 2.767 3.056 4.21 4.466ZM36 68.188v10.978a3.107 3.107 0 0 1-6.214 0V65.673c.54-.926 1.185-1.673 2.26-1.673 2.041 0 2.688 2.692 3.954 4.188Z" fill="#4E56A6"></path></g><mask id="mask1_1_218" style="mask-type:alpha" maskUnits="userSpaceOnUse" x="7" y="58" width="29" height="17"><path d="M13.214 70.898c-.55-.674-1.203-1.175-2.147-1.175-2.24 0-2.652 2.824-4.067 4.097V61.64a3.107 3.107 0 1 1 6.214 0v9.258Zm11.738.218c-.588-.782-1.275-1.393-2.317-1.393-2.493 0-2.722 3.495-4.587 4.461v-5.386a3.452 3.452 0 0 1 6.904 0v2.318ZM36 70.512c-.478-.471-1.045-.79-1.798-.79-2.414 0-2.704 3.28-4.416 4.365V63.153a3.107 3.107 0 0 1 6.214 0v7.359Z" fill="#fff"></path></mask><g mask="url(#mask1_1_218)"><path d="M13.214 70.898c-.55-.674-1.203-1.175-2.147-1.175-2.24 0-2.652 2.824-4.067 4.097V61.64a3.107 3.107 0 1 1 6.214 0v9.258Zm11.738.218c-.588-.782-1.275-1.393-2.317-1.393-2.493 0-2.722 3.495-4.587 4.461v-5.386a3.452 3.452 0 0 1 6.904 0v2.318ZM36 70.512c-.478-.471-1.045-.79-1.798-.79-2.414 0-2.704 3.28-4.416 4.365V63.153a3.107 3.107 0 0 1 6.214 0v7.359Z" fill="#000" fill-opacity=".299"></path></g><path fill-rule="evenodd" clip-rule="evenodd" d="M41.76 70.247C40.946 71.48 40.326 73 38.667 73c-2.791 0-2.942-4.304-5.735-4.304S30.29 73 27.498 73c-2.792 0-2.943-4.304-5.736-4.304C18.97 68.696 19.12 73 16.33 73c-2.792 0-2.943-4.304-5.736-4.304C7.802 68.696 7.952 73 5.16 73c-.877 0-1.494-.425-2.013-1.008C1.149 68.516 0 64.442 0 60.087 0 47.337 9.85 37 22 37s22 10.336 22 23.087c0 3.646-.805 7.094-2.24 10.16Z" fill="#FB70A9"></path><path fill-rule="evenodd" clip-rule="evenodd" d="M37 72.54c5.765-8.577 5.914-18.09.447-28.54A23.027 23.027 0 0 1 44 60.136a23.07 23.07 0 0 1-2.321 10.121C40.833 71.486 40.19 73 38.472 73A2.506 2.506 0 0 1 37 72.54Z" fill="#E24CA6"></path><path fill-rule="evenodd" clip-rule="evenodd" d="M20.82 65.846c7.651 0 10.872-4.438 10.872-10.741S26.825 43 20.82 43C14.816 43 9.95 48.802 9.95 55.105c0 6.303 3.221 10.741 10.871 10.741Z" fill="#fff"></path><path d="M17.897 55.462c2.252 0 4.077-2.015 4.077-4.5 0-2.486-1.825-4.5-4.077-4.5-2.251 0-4.076 2.014-4.076 4.5 0 2.485 1.825 4.5 4.076 4.5Z" fill="#030776"></path><path d="M17.218 52c1.126 0 2.038-.93 2.038-2.077 0-1.147-.912-2.077-2.038-2.077s-2.038.93-2.038 2.077c0 1.147.912 2.077 2.038 2.077Z" fill="#fff"></path><rect x="29" width="132" height="28" rx="14" fill="#4E56A6"></rect><path d="M42.53 19V8.818h1.536v4.425h5.076V8.818h1.541V19h-1.54v-4.44h-5.077V19H42.53Zm13.398.154c-.716 0-1.34-.164-1.874-.492a3.319 3.319 0 0 1-1.243-1.377c-.295-.59-.443-1.28-.443-2.068 0-.793.148-1.485.443-2.079a3.312 3.312 0 0 1 1.242-1.382c.534-.328 1.159-.492 1.875-.492s1.34.164 1.874.492c.534.329.948.79 1.243 1.383.295.593.442 1.286.442 2.078 0 .788-.147 1.478-.442 2.068a3.319 3.319 0 0 1-1.243 1.377c-.533.328-1.158.492-1.874.492Zm.005-1.248c.464 0 .848-.122 1.153-.368.305-.245.53-.571.676-.98.15-.407.224-.856.224-1.346 0-.488-.075-.935-.224-1.343a2.187 2.187 0 0 0-.676-.989c-.305-.249-.69-.373-1.153-.373-.468 0-.855.124-1.164.373a2.221 2.221 0 0 0-.68.99 3.96 3.96 0 0 0-.22 1.342c0 .49.074.94.22 1.347.148.408.376.734.68.98.309.245.696.367 1.164.367ZM62.48 19l-2.247-7.636h1.536l1.496 5.608h.075l1.501-5.608h1.537l1.491 5.583h.075l1.486-5.583h1.536L68.724 19h-1.516l-1.551-5.514h-.115L63.992 19H62.48Zm16.639.154c-.74 0-1.376-.167-1.91-.502a3.325 3.325 0 0 1-1.222-1.397c-.285-.593-.428-1.273-.428-2.038 0-.776.146-1.46.438-2.054a3.351 3.351 0 0 1 1.233-1.397c.53-.334 1.155-.502 1.874-.502.58 0 1.097.108 1.55.323.455.213.821.51 1.1.895.281.385.449.834.502 1.348h-1.447a1.735 1.735 0 0 0-.547-.925c-.281-.259-.66-.388-1.133-.388-.415 0-.778.11-1.09.328-.307.216-.548.524-.72.925-.172.398-.258.868-.258 1.412 0 .557.084 1.037.253 1.442.17.404.408.717.716.94.311.221.678.332 1.099.332.281 0 .537-.051.765-.154.232-.106.426-.257.582-.452.16-.196.27-.431.333-.706h1.447a2.81 2.81 0 0 1-.482 1.322 2.775 2.775 0 0 1-1.08.915c-.447.222-.972.333-1.575.333Zm6.859.015a3.12 3.12 0 0 1-1.313-.268 2.211 2.211 0 0 1-.93-.79c-.225-.346-.338-.768-.338-1.269 0-.43.083-.785.25-1.064.165-.278.388-.498.67-.66.282-.163.597-.286.945-.369a9.383 9.383 0 0 1 1.064-.189l1.113-.129c.285-.036.493-.094.622-.174.13-.08.194-.209.194-.388v-.034c0-.435-.123-.771-.368-1.01-.242-.238-.603-.358-1.084-.358-.5 0-.895.111-1.183.333-.285.22-.482.463-.592.731l-1.397-.318c.166-.464.408-.838.726-1.123a2.943 2.943 0 0 1 1.109-.627 4.328 4.328 0 0 1 1.317-.199c.305 0 .628.037.97.11.344.07.666.198.964.387.302.19.549.46.74.81.193.349.29.801.29 1.358V19h-1.453v-1.044h-.06c-.095.192-.24.381-.432.567-.192.185-.439.34-.74.462-.302.123-.663.184-1.084.184Zm.323-1.193c.41 0 .762-.081 1.054-.244.295-.162.519-.374.671-.636.156-.265.234-.549.234-.85v-.985c-.053.053-.156.103-.309.15a4.81 4.81 0 0 1-.512.114c-.192.03-.38.058-.561.084l-.458.06a3.686 3.686 0 0 0-.79.184c-.236.086-.424.21-.567.373-.14.159-.209.371-.209.636 0 .368.136.647.408.835.272.186.618.279 1.039.279Zm6.822-3.51V19h-1.487v-7.636h1.427v1.242h.094c.176-.404.451-.729.826-.974.378-.245.853-.368 1.427-.368.52 0 .976.11 1.367.328.39.216.694.537.91.965.215.427.323.956.323 1.586V19h-1.487v-4.678c0-.554-.144-.986-.432-1.298-.289-.315-.685-.472-1.188-.472a1.86 1.86 0 0 0-.92.224c-.265.149-.476.367-.632.656-.152.285-.228.63-.228 1.034Zm12.061-5.648V19h-1.536V8.818h1.536Zm7.129 5.648V19h-1.486V8.818h1.467v3.789h.094c.179-.412.452-.738.82-.98.368-.242.849-.363 1.442-.363.524 0 .981.108 1.372.323.395.216.7.537.915.965.219.424.328.954.328 1.59V19h-1.486v-4.678c0-.56-.145-.995-.433-1.303-.288-.311-.689-.467-1.203-.467-.351 0-.666.074-.945.224-.275.149-.492.367-.651.656-.156.285-.234.63-.234 1.034Zm10.137 4.688c-.752 0-1.4-.16-1.944-.482a3.273 3.273 0 0 1-1.253-1.367c-.291-.59-.437-1.281-.437-2.073 0-.783.146-1.472.437-2.069a3.398 3.398 0 0 1 1.233-1.397c.531-.334 1.15-.502 1.86-.502.43 0 .848.072 1.252.214.405.143.768.366 1.089.671.322.305.575.701.761 1.188.185.484.278 1.073.278 1.765v.527h-6.07v-1.113h4.614c0-.392-.08-.738-.239-1.04a1.805 1.805 0 0 0-.671-.72 1.875 1.875 0 0 0-1.004-.264 1.94 1.94 0 0 0-1.094.308 2.071 2.071 0 0 0-.716.796 2.293 2.293 0 0 0-.249 1.059v.87c0 .51.09.944.269 1.302.182.358.436.632.76.82.325.186.705.28 1.139.28.282 0 .539-.04.771-.12.232-.083.432-.206.601-.368.169-.163.298-.363.388-.602l1.407.254a2.549 2.549 0 0 1-.607 1.089 2.939 2.939 0 0 1-1.088.72c-.435.17-.93.254-1.487.254Zm6.322-10.336V19h-1.486V8.818h1.486Zm1.91 13.046v-10.5h1.452v1.238h.124c.086-.16.21-.344.373-.552.162-.21.388-.391.676-.547.288-.16.669-.239 1.143-.239.617 0 1.167.156 1.651.468.484.311.863.76 1.138 1.347.279.586.418 1.292.418 2.118 0 .825-.137 1.533-.413 2.123-.275.586-.652 1.039-1.133 1.357a2.936 2.936 0 0 1-1.646.472c-.464 0-.843-.078-1.138-.233a2.143 2.143 0 0 1-.686-.547 4.072 4.072 0 0 1-.383-.557h-.09v4.052h-1.486Zm1.457-6.682c0 .537.078 1.007.233 1.412.156.404.381.72.676.95.295.225.657.337 1.084.337.444 0 .816-.117 1.114-.353.298-.238.524-.561.676-.97.156-.407.234-.866.234-1.376 0-.504-.077-.956-.229-1.357a2.08 2.08 0 0 0-.676-.95c-.298-.232-.671-.348-1.119-.348-.431 0-.795.111-1.094.333-.294.222-.518.532-.671.93-.152.398-.228.862-.228 1.392Zm8.719.89v-.095c.007-.616.068-1.107.184-1.471.12-.365.289-.66.507-.885.219-.226.483-.431.791-.617a3.24 3.24 0 0 0 .537-.422c.159-.156.285-.335.378-.537.092-.202.139-.426.139-.671 0-.295-.07-.55-.209-.766a1.39 1.39 0 0 0-.557-.497 1.63 1.63 0 0 0-.765-.18c-.256 0-.499.054-.731.16a1.382 1.382 0 0 0-.577.497c-.152.222-.24.509-.263.86h-1.512c.023-.596.174-1.1.453-1.511a2.643 2.643 0 0 1 1.103-.94 3.61 3.61 0 0 1 1.527-.318c.609 0 1.143.114 1.6.343.458.225.812.542 1.064.95.256.404.383.876.383 1.417 0 .37-.058.706-.174 1.004a2.5 2.5 0 0 1-.497.79 3.378 3.378 0 0 1-.766.617c-.281.175-.51.358-.686.547a1.75 1.75 0 0 0-.378.67 3.552 3.552 0 0 0-.129.96v.095h-1.422Zm.751 3.023a.966.966 0 0 1-.701-.289.96.96 0 0 1-.293-.706c0-.272.097-.504.293-.696a.957.957 0 0 1 .701-.293c.268 0 .5.098.696.293a.932.932 0 0 1 .298.696c0 .182-.046.35-.139.502-.089.15-.209.269-.358.358a.948.948 0 0 1-.497.134Z" fill="#fff"></path><path d="m47.625 33.702-1.847-6.124A2 2 0 0 1 47.693 25h7.654c1.756 0 2.66 2.102 1.451 3.376L50.991 34.5c-1.056 1.114-2.922.672-3.366-.798Z" fill="#4E56A6"></path></svg>